<svg width="296" height="233" viewBox="0 0 296 233" fill="none" xmlns="http://www.w3.org/2000/svg">
<path d="M368.042 204.632C371.194 216.386 364.22 228.469 352.466 231.618C340.714 234.767 328.634 227.793 325.485 216.041L316.309 181.796C313.163 170.055 301.094 163.087 289.353 166.233C277.612 169.379 265.543 162.411 262.397 150.67L253.233 116.472C250.084 104.719 238.003 97.7434 226.249 100.893C214.496 104.042 202.415 97.0671 199.265 85.3135L190.102 51.1156C186.956 39.3742 174.887 32.4063 163.146 35.5524C151.404 38.6985 139.336 31.7307 136.19 19.9893L127.015 -14.2527C123.865 -26.0062 111.784 -32.9813 100.03 -29.8319C88.2769 -26.6826 76.1957 -33.6577 73.0464 -45.4112L63.883 -79.6092C60.737 -91.3505 48.6683 -98.3184 36.9269 -95.1723C25.1855 -92.0262 13.1168 -98.9941 9.97072 -110.735L1.2964 -143.108C-2.1309 -155.899 5.4492 -169.049 18.2354 -172.494L226.935 -228.72C239.744 -232.171 252.923 -224.576 256.359 -211.763L368.042 204.632Z" fill="#C5BFED"/>
</svg>
