<svg width="186" height="344" viewBox="0 0 186 344" fill="none" xmlns="http://www.w3.org/2000/svg">
<path d="M189.996 328.157C189.998 336.906 182.906 344 174.157 344C165.409 344 158.317 336.908 158.317 328.16L158.317 302.519C158.317 293.779 151.232 286.694 142.492 286.694C133.752 286.694 126.667 279.608 126.667 270.868L126.667 245.261C126.667 236.512 119.574 229.42 110.825 229.42C102.076 229.42 94.9836 222.327 94.9836 213.578L94.9836 187.971C94.9836 179.231 87.8984 172.146 79.1585 172.146C70.4185 172.146 63.3333 165.061 63.3333 156.321L63.3333 130.681C63.3333 121.932 56.2408 114.84 47.4918 114.84C38.7428 114.84 31.6503 107.747 31.6503 98.9982L31.6503 73.3912C31.6503 64.6512 24.5651 57.5661 15.8251 57.5661C7.08514 57.5661 -1.28301e-05 50.4809 -1.32122e-05 41.7409L-1.39777e-05 24.2268C-1.45566e-05 10.9847 10.7252 0.244903 23.9672 0.226806L165.889 0.0328297C179.154 0.0146711 189.918 10.7616 189.922 24.0269L189.996 328.157Z" fill="#B2AAE7"/>
</svg>
