<svg width="56" height="48" viewBox="0 0 56 48" fill="none" xmlns="http://www.w3.org/2000/svg">
<rect width="56" height="48" rx="12" fill="#F5F4FC"/>
<path d="M40.1199 17.307C38.9866 16.0537 37.1066 15.427 34.3466 15.427H34.0266V15.3737C34.0266 13.1337 34.0266 10.3604 29.0132 10.3604H26.9866C21.9732 10.3604 21.9732 13.1337 21.9732 15.3737V15.427H21.6532C18.8932 15.427 16.9999 16.0537 15.8799 17.307C14.5599 18.787 14.5999 20.747 14.7332 22.0937L14.7466 22.187L14.8456 23.343C14.8588 23.4969 14.9424 23.6362 15.0721 23.7202C15.47 23.978 15.8979 24.2533 16.3066 24.4804C16.4932 24.6004 16.6932 24.707 16.8932 24.8137C18.3999 25.6404 20.0132 26.2937 21.6666 26.747C21.7066 30.2004 24.5332 33.0004 27.9999 33.0004C31.4932 33.0004 34.3332 30.1604 34.3332 26.667V26.6137C36.0132 26.107 37.6266 25.4004 39.1332 24.5204C39.2132 24.4804 39.2666 24.4404 39.3332 24.4004C39.8809 24.1027 40.4499 23.7093 40.9642 23.3437C41.0803 23.2611 41.1553 23.1326 41.1707 22.9909L41.2666 22.107C41.2799 22.027 41.2799 21.9604 41.2932 21.867C41.3999 20.5337 41.3732 18.6937 40.1199 17.307ZM23.8799 15.3737C23.8799 13.107 23.8799 12.2537 26.9866 12.2537H29.0132C32.1199 12.2537 32.1199 13.107 32.1199 15.3737V15.427H23.8799V15.3737ZM27.9999 31.0004C25.7999 31.0004 23.9732 29.347 23.7066 27.2137C23.6799 27.0404 23.6666 26.8537 23.6666 26.667C23.6666 24.2804 25.6132 22.3337 27.9999 22.3337C30.3866 22.3337 32.3332 24.2804 32.3332 26.667C32.3332 26.827 32.3199 26.9737 32.3066 27.1204V27.1337C32.0666 29.307 30.2266 31.0004 27.9999 31.0004Z" fill="#847BC0"/>
<path d="M27.24 29.3735C26.9867 29.3735 26.7333 29.2801 26.5333 29.0801L25.2133 27.7735C24.8267 27.3868 24.8267 26.7468 25.2133 26.3601C25.6 25.9735 26.24 25.9735 26.6267 26.3601L27.2667 27.0001L29.4133 25.0268C29.8133 24.6535 30.4533 24.6801 30.8267 25.0801C31.2 25.4801 31.1733 26.1201 30.7733 26.4935L27.9333 29.1201C27.72 29.2801 27.48 29.3735 27.24 29.3735Z" fill="#847BC0"/>
<path d="M40.0553 26.3081C40.3869 26.1239 40.8171 26.3908 40.7825 26.7686L40.3086 31.9481C40.0286 34.6148 38.9353 37.3348 33.0686 37.3348H22.9086C17.0419 37.3348 15.9486 34.6148 15.6819 31.9615L15.2208 27.0237C15.185 26.6403 15.595 26.3813 15.9353 26.5615C16.9753 27.1348 18.0553 27.6415 19.1619 28.0415C19.5753 28.1881 19.8686 28.5348 19.9886 28.9615C20.9886 32.4281 24.2153 35.0015 28.0019 35.0015C31.8553 35.0015 35.1086 32.3748 36.0553 28.7748C36.1619 28.3481 36.4553 28.0015 36.8686 27.8415C37.9886 27.4015 39.0553 26.8815 40.0553 26.3081Z" fill="#847BC0"/>
</svg>
