<svg width="56" height="48" viewBox="0 0 56 48" fill="none" xmlns="http://www.w3.org/2000/svg">
<rect width="56" height="48" rx="12" fill="#F5F4FC"/>
<path d="M34.4398 28.8535C35.3332 28.2669 36.5065 28.9069 36.5065 29.9735V31.6935C36.5065 33.3869 35.1865 35.2002 33.5998 35.7335L29.3465 37.1469C28.5998 37.4002 27.3865 37.4002 26.6532 37.1469L22.3998 35.7335C20.7998 35.2002 19.4932 33.3869 19.4932 31.6935V29.9602C19.4932 28.9069 20.6665 28.2669 21.5465 28.8402L24.2932 30.6269C25.3465 31.3335 26.6798 31.6802 28.0132 31.6802C29.3465 31.6802 30.6798 31.3335 31.7332 30.6269L34.4398 28.8535Z" fill="#847BC0"/>
<path d="M38.64 16.6131L30.6534 11.3731C29.2134 10.4264 26.84 10.4264 25.4 11.3731L17.3734 16.6131C14.8 18.2798 14.8 22.0531 17.3734 23.7331L19.5067 25.1198L25.4 28.9598C26.84 29.9064 29.2134 29.9064 30.6534 28.9598L36.5067 25.1198L38.3334 23.9198V27.9998C38.3334 28.5464 38.7867 28.9998 39.3334 28.9998C39.88 28.9998 40.3334 28.5464 40.3334 27.9998V21.4398C40.8667 19.7198 40.32 17.7198 38.64 16.6131Z" fill="#847BC0"/>
</svg>
