<svg width="57" height="48" viewBox="0 0 57 48" fill="none" xmlns="http://www.w3.org/2000/svg">
<rect x="0.5" width="56" height="48" rx="12" fill="#F5F4FC"/>
<path d="M31.0198 11.8402L24.7665 10.8535C19.5532 10.0402 17.1398 11.8002 16.3132 17.0135L15.3265 23.2669C14.7932 26.6802 15.3532 28.8935 17.2865 30.2402C18.2998 30.9602 19.6865 31.4402 21.4865 31.7202L27.7398 32.7069C32.9532 33.5202 35.3665 31.7602 36.1932 26.5469L37.1665 20.2935C37.3265 19.2669 37.3932 18.3469 37.3398 17.5335C37.1665 14.2002 35.2065 12.4935 31.0198 11.8402ZM23.4865 20.4669C21.9265 20.4669 20.6598 19.2002 20.6598 17.6535C20.6598 16.0935 21.9265 14.8269 23.4865 14.8269C25.0332 14.8269 26.2998 16.0935 26.2998 17.6535C26.2998 19.2002 25.0332 20.4669 23.4865 20.4669Z" fill="#847BC0"/>
<path d="M39.8335 25.9598L37.8335 31.9731C36.1669 36.9864 33.5002 38.3198 28.4868 36.6531L22.4735 34.6531C20.5935 34.0264 19.2335 33.2531 18.3535 32.2798C19.1935 32.6131 20.1668 32.8664 21.2735 33.0398L27.5402 34.0264C28.3935 34.1598 29.1935 34.2264 29.9402 34.2264C34.3402 34.2264 36.7002 31.8531 37.5135 26.7464L38.4869 20.4931C38.6202 19.7198 38.6735 19.0398 38.6735 18.4131C40.7002 20.0798 40.9935 22.4531 39.8335 25.9598Z" fill="#847BC0"/>
</svg>
