<svg width="20" height="20" viewBox="0 0 20 20" fill="none" xmlns="http://www.w3.org/2000/svg">
<path d="M12.8245 4.34157L13.9995 6.69157C14.1579 7.01657 14.5829 7.3249 14.9412 7.39157L17.0662 7.74157C18.4245 7.96657 18.7412 8.9499 17.7662 9.93324L16.1079 11.5916C15.8329 11.8666 15.6745 12.4082 15.7662 12.7999L16.2412 14.8499C16.6162 16.4666 15.7495 17.0999 14.3245 16.2499L12.3329 15.0666C11.9745 14.8499 11.3745 14.8499 11.0162 15.0666L9.02455 16.2499C7.59955 17.0916 6.73288 16.4666 7.10788 14.8499L7.58288 12.7999C7.65788 12.3999 7.49955 11.8582 7.22455 11.5832L5.56621 9.9249C4.59121 8.9499 4.90788 7.96657 6.26621 7.73324L8.39121 7.38324C8.74954 7.3249 9.17455 7.00824 9.33288 6.68324L10.5079 4.33324C11.1495 3.06657 12.1829 3.06657 12.8245 4.34157Z" fill="#9F95E1"/>
<path d="M6.66699 4.7915H1.66699C1.32533 4.7915 1.04199 4.50817 1.04199 4.1665C1.04199 3.82484 1.32533 3.5415 1.66699 3.5415H6.66699C7.00866 3.5415 7.29199 3.82484 7.29199 4.1665C7.29199 4.50817 7.00866 4.7915 6.66699 4.7915Z" fill="#9F95E1"/>
<path d="M4.16699 16.4585H1.66699C1.32533 16.4585 1.04199 16.1752 1.04199 15.8335C1.04199 15.4918 1.32533 15.2085 1.66699 15.2085H4.16699C4.50866 15.2085 4.79199 15.4918 4.79199 15.8335C4.79199 16.1752 4.50866 16.4585 4.16699 16.4585Z" fill="#9F95E1"/>
<path d="M2.50033 10.625H1.66699C1.32533 10.625 1.04199 10.3417 1.04199 10C1.04199 9.65833 1.32533 9.375 1.66699 9.375H2.50033C2.84199 9.375 3.12533 9.65833 3.12533 10C3.12533 10.3417 2.84199 10.625 2.50033 10.625Z" fill="#9F95E1"/>
</svg>
