<svg width="16" height="16" viewBox="0 0 16 16" fill="none" xmlns="http://www.w3.org/2000/svg">
<g clip-path="url(#clip0_0_10516)">
<path d="M5.2999 9.71883L5.70511 10.9726C5.79615 11.2572 5.83412 11.4559 5.81891 11.5692C6.04053 11.0032 6.19537 10.3864 6.28347 9.71883H6.77071C6.5612 10.8057 6.28488 11.5954 5.94188 12.0881C5.67464 12.4678 5.38188 12.6576 5.06308 12.6576C4.97808 12.6576 4.87329 12.6331 4.74894 12.5845V12.3225C4.80969 12.331 4.88097 12.3356 4.96295 12.3356C5.11167 12.3356 5.23154 12.2963 5.32274 12.2178C5.43193 12.1222 5.4866 12.0148 5.4866 11.8957C5.4866 11.8144 5.44396 11.6476 5.35909 11.3952L4.79451 9.71883H5.2999ZM2.19868 8.94824L2.94087 11.1076H2.94545L3.69219 8.94824H4.3023C4.43589 10.0191 4.5148 10.999 4.53902 11.8871H4.02464C4.00654 11.0569 3.95641 10.2762 3.87443 9.54488H3.86995L3.08667 11.8871H2.69495L1.91641 9.54488H1.91183C1.85407 10.2472 1.81771 11.0279 1.80256 11.8871H1.3335C1.36381 10.8421 1.43967 9.86261 1.56107 8.94824H2.19868Z" fill="#00758F"/>
<path d="M10.5133 8.90481C11.3117 8.90481 11.7109 9.39119 11.7109 10.3635C11.7109 10.8918 11.5908 11.2909 11.3509 11.5605C11.3077 11.6098 11.2599 11.6523 11.2096 11.6918L11.7746 11.9582L11.774 11.9581L11.5734 12.2885L10.8377 11.8791C10.7157 11.9135 10.5815 11.9307 10.4353 11.9307C10.0433 11.9307 9.75049 11.8218 9.55689 11.6042C9.34439 11.3635 9.2382 10.9845 9.2382 10.4679C9.2382 9.94255 9.35804 9.54498 9.59799 9.27502C9.81653 9.02808 10.1217 8.90481 10.5133 8.90481ZM8.06851 8.90908C8.35385 8.90908 8.6133 8.98189 8.847 9.12699L8.7283 9.37922C8.52833 9.29816 8.33117 9.25746 8.13674 9.25746C7.97898 9.25746 7.85742 9.29367 7.77268 9.36653C7.68747 9.43874 7.63476 9.53167 7.63476 9.64495C7.63476 9.81903 7.76481 9.96999 8.00494 10.0975C8.08361 10.1385 8.16201 10.18 8.24012 10.222L8.25804 10.2316L8.26702 10.2364L8.28497 10.246L8.29393 10.2508L8.31184 10.2605C8.49361 10.3582 8.66466 10.4514 8.66466 10.4514C8.90476 10.614 9.02445 10.7873 9.02445 11.0727C9.02445 11.3219 8.92867 11.5265 8.73773 11.6866C8.54666 11.846 8.28997 11.9259 7.96851 11.9259C7.66786 11.9259 7.37648 11.8339 7.09424 11.6515L7.22627 11.399C7.46916 11.5151 7.68895 11.5731 7.88632 11.5731C8.07143 11.5731 8.21632 11.5337 8.32114 11.4559C8.42575 11.3775 8.48843 11.2682 8.48843 11.1295C8.48843 10.955 8.36114 10.8058 8.12762 10.6807C8.05453 10.6422 7.98166 10.6033 7.909 10.5641L7.89111 10.5544C7.85825 10.5367 7.82515 10.5188 7.79273 10.5012L7.77515 10.4917C7.61747 10.4062 7.48114 10.3314 7.48114 10.3314C7.2477 10.1686 7.13064 9.9939 7.13064 9.70604C7.13064 9.46797 7.21794 9.27554 7.39226 9.12915C7.567 8.98244 7.79244 8.90908 8.06851 8.90908ZM12.6491 8.94842V11.5258H13.6188V11.8873H12.1573V8.94842H12.6491ZM14.1577 11.5269V11.588H14.0511V11.887H13.9696V11.588H13.8588V11.5269H14.1577H14.1577ZM14.3546 11.5269L14.4569 11.7723L14.551 11.5269H14.6665V11.887H14.5897V11.6129L14.4827 11.887H14.4273L14.3201 11.6129H14.316V11.887H14.2433V11.5269H14.3546H14.3546ZM10.4631 9.26623C9.99262 9.26623 9.75726 9.63648 9.75726 10.3765C9.75726 10.8004 9.81963 11.1078 9.94413 11.2994C10.0594 11.4767 10.24 11.5652 10.486 11.5652C10.9564 11.5652 11.1918 11.192 11.1918 10.4461C11.1918 10.0281 11.1294 9.72338 11.005 9.53169C10.8896 9.35478 10.7091 9.26623 10.4631 9.26623H10.4631Z" fill="#F29111"/>
<path d="M9.22998 4.1821C9.38605 3.81641 9.93176 4.09335 10.1435 4.22109C10.1954 4.25305 10.255 4.32057 10.3145 4.34553C10.4073 4.349 10.5001 4.35593 10.5931 4.35963C10.7675 4.39872 10.9309 4.43065 11.0683 4.5053C11.7071 4.86401 12.1229 5.22955 12.5056 5.83334C12.5873 5.96123 12.6282 6.09962 12.695 6.23801C12.7877 6.4443 12.8919 6.66084 12.9995 6.8559C13.0476 6.94838 13.0849 7.05121 13.1518 7.12931C13.1779 7.16502 13.2521 7.17555 13.2965 7.19688C13.4191 7.2574 13.5676 7.30334 13.6829 7.37437C13.8983 7.5024 14.1065 7.65498 14.2957 7.81118C14.3663 7.87147 14.4144 7.95682 14.4816 8.02059V8.05277C14.4219 8.07023 14.3625 8.08811 14.303 8.10244C14.173 8.13428 14.0578 8.12707 13.9318 8.15893C13.8538 8.18049 13.7571 8.20892 13.6754 8.21615L13.6829 8.2234C13.731 8.35439 13.9911 8.46093 14.1101 8.53927C14.2545 8.63871 14.3884 8.75929 14.4962 8.89779C14.5334 8.93312 14.5706 8.96528 14.6076 9.00052C14.6335 9.03623 14.6408 9.08242 14.667 9.11425V9.12503C14.638 9.11527 14.6171 9.09665 14.5974 9.07718L14.5856 9.06543C14.5738 9.05376 14.5619 9.04229 14.5483 9.03283C14.4663 8.97944 14.3849 8.91557 14.303 8.86593C14.162 8.78065 13.9986 8.73116 13.8538 8.64556C13.772 8.59587 13.694 8.53927 13.616 8.48241C13.5453 8.43257 13.4675 8.33686 13.423 8.26584C13.3969 8.2266 13.3933 8.18049 13.3634 8.15211C13.3687 8.1047 13.4143 8.09062 13.4602 8.07905L13.4708 8.07639C13.4867 8.07247 13.5022 8.06854 13.5157 8.06335C13.7088 7.98518 13.939 7.95682 14.2362 7.96392C14.225 7.89275 14.0393 7.80407 13.98 7.76146C13.861 7.67966 13.735 7.59431 13.6087 7.51986C13.5418 7.48087 13.4265 7.45241 13.3524 7.42055C13.2521 7.38147 13.0292 7.34241 12.9737 7.26796C12.8793 7.1506 12.8114 7.01061 12.7456 6.86922L12.7277 6.83062C12.7217 6.81776 12.7157 6.80491 12.7097 6.79206C12.6319 6.62178 12.5352 6.44425 12.4573 6.2699C12.4165 6.18485 12.3977 6.1102 12.3531 6.02862C12.0821 5.52804 11.6809 5.10894 11.1946 4.8142C11.0348 4.71829 10.8566 4.62954 10.6599 4.56922C10.5484 4.53711 10.4146 4.55487 10.2958 4.53023H10.2176C10.1509 4.5123 10.0952 4.44486 10.0432 4.4093C9.92819 4.33485 9.81303 4.28486 9.67553 4.23174C9.62735 4.21044 9.48978 4.16082 9.44176 4.19988C9.41202 4.20701 9.39694 4.21771 9.38962 4.24617C9.36004 4.28863 9.38605 4.3526 9.40446 4.39176C9.46025 4.50525 9.53816 4.5727 9.60889 4.6686C9.67181 4.75365 9.74996 4.84956 9.79457 4.94204C9.89082 5.14082 9.93564 5.36107 10.0248 5.55983C10.0579 5.63457 10.1102 5.71963 10.1584 5.78705C10.1992 5.84056 10.2734 5.87925 10.2958 5.947C10.3406 6.01802 10.2288 6.25237 10.203 6.32679C10.1062 6.61801 10.125 7.02281 10.2364 7.27523L10.2423 7.28854L10.2483 7.30203C10.2889 7.39448 10.3325 7.49403 10.4406 7.51989C10.4481 7.51283 10.4406 7.51653 10.4554 7.51283C10.4816 7.31745 10.4889 7.12929 10.5596 6.97642C10.6004 6.88084 10.6819 6.81327 10.7377 6.73524C10.775 6.7565 10.775 6.82059 10.7971 6.86301C10.8455 6.97302 10.8974 7.09363 10.957 7.20396C11.0793 7.43118 11.2169 7.65148 11.3728 7.85024C11.425 7.92123 11.4991 7.99938 11.5659 8.06333C11.5957 8.08809 11.629 8.10239 11.6514 8.13425H11.6587V8.14498C11.5473 8.10582 11.4766 7.99591 11.3878 7.93174C11.2205 7.81113 11.0201 7.62999 10.9048 7.45619C10.8566 7.35641 10.8045 7.26078 10.7525 7.1615V7.15432C10.7303 7.18268 10.7377 7.21084 10.7266 7.25375C10.6784 7.43118 10.7155 7.6336 10.5484 7.69742C10.359 7.77216 10.2177 7.5768 10.1584 7.48803C9.96889 7.19336 9.91699 6.69625 10.0506 6.29498C10.0803 6.20615 10.0843 6.09962 10.1362 6.0287C10.125 5.96458 10.0731 5.94705 10.0432 5.90776C9.99118 5.84061 9.94668 5.76239 9.90597 5.68782C9.8278 5.54215 9.77217 5.36809 9.71282 5.21187C9.68673 5.14807 9.67926 5.08403 9.65324 5.02364C9.60887 4.93146 9.52707 4.83898 9.46397 4.75743C9.37853 4.64022 9.12967 4.41305 9.22998 4.1821ZM10.448 4.87779C10.4579 4.88728 10.4699 4.89557 10.4823 4.90374L10.4973 4.91353C10.5172 4.92669 10.5365 4.94055 10.5483 4.95942C10.567 4.9844 10.5705 5.00906 10.593 5.03409C10.593 5.11944 10.567 5.17619 10.5147 5.21155C10.5147 5.21155 10.5111 5.21527 10.5074 5.21875C10.4777 5.16186 10.4517 5.10526 10.4218 5.04842C10.385 4.9988 10.333 4.95944 10.303 4.90275H10.2957V4.89562C10.3406 4.88507 10.385 4.87779 10.448 4.87779Z" fill="#00758F"/>
</g>
<defs>
<clipPath id="clip0_0_10516">
<rect width="13.3333" height="8.66667" fill="white" transform="translate(1.3335 4)"/>
</clipPath>
</defs>
</svg>
