<svg width="16" height="16" viewBox="0 0 16 16" fill="none" xmlns="http://www.w3.org/2000/svg">
<g clip-path="url(#clip0_0_10475)">
<path d="M14.6123 8.84667C15.0789 5.19402 12.4993 1.85459 8.85334 1.38803C5.20735 0.921413 1.85459 3.501 1.38803 7.14699C0.921413 10.793 3.501 14.1391 7.14699 14.6123C10.7996 15.0789 14.1391 12.4993 14.6123 8.84667Z" fill="#FF6C37"/>
<path d="M10.4064 5.61397L7.59352 8.42683L6.80029 7.6336C9.56649 4.86746 9.83982 5.10741 10.4064 5.61397Z" fill="white"/>
<path d="M7.59354 8.49321C7.57354 8.49321 7.56021 8.48654 7.54687 8.47321L6.74703 7.68003C6.74072 7.67402 6.73569 7.66678 6.73226 7.65876C6.72882 7.65075 6.72705 7.64212 6.72705 7.63339C6.72705 7.62467 6.72882 7.61604 6.73226 7.60802C6.73569 7.60001 6.74072 7.59277 6.74703 7.58675C9.55984 4.77389 9.85312 5.0405 10.4464 5.57373C10.4597 5.58707 10.4664 5.6004 10.4664 5.6204C10.4664 5.6404 10.4597 5.65373 10.4464 5.66707L7.63354 8.47321C7.62688 8.48654 7.60688 8.49321 7.59354 8.49321ZM6.8937 7.63337L7.59354 8.33326L10.3064 5.6204C9.81318 5.1805 9.47984 5.04712 6.8937 7.63337Z" fill="#FF6C37"/>
<path d="M8.4003 9.23318L7.63379 8.46662L10.4466 5.65381C11.1998 6.4137 10.0734 7.64678 8.4003 9.23318Z" fill="white"/>
<path d="M8.40024 9.30012C8.38024 9.30012 8.36691 9.29345 8.35363 9.28012L7.58706 8.51356C7.57373 8.50022 7.57373 8.48689 7.57373 8.46689C7.57373 8.44694 7.5804 8.43356 7.59373 8.42027L10.4066 5.60741C10.4126 5.60109 10.4199 5.59605 10.4279 5.59261C10.4359 5.58918 10.4445 5.5874 10.4533 5.5874C10.462 5.5874 10.4706 5.58918 10.4786 5.59261C10.4867 5.59605 10.4939 5.60109 10.4999 5.60741C10.585 5.68617 10.6523 5.78224 10.6971 5.88918C10.7419 5.99611 10.7634 6.11141 10.7599 6.22731C10.7465 6.9672 9.90675 7.90699 8.45363 9.28012C8.43363 9.29345 8.41363 9.30012 8.40029 9.30012H8.40024ZM7.72706 8.46689C8.15363 8.90017 8.33363 9.07345 8.40024 9.14012C9.52003 8.07366 10.6065 6.98054 10.6132 6.22731C10.6199 6.05402 10.5532 5.88069 10.4399 5.74741L7.72706 8.46689Z" fill="#FF6C37"/>
<path d="M6.81373 7.65375L7.38029 8.22031C7.39362 8.23365 7.39362 8.24698 7.38029 8.26031C7.37362 8.26698 7.37362 8.26698 7.36696 8.26698L6.19383 8.52026C6.13383 8.52693 6.0805 8.48693 6.06716 8.42698C6.0605 8.39365 6.07383 8.36031 6.09383 8.34031L6.77373 7.66042C6.78706 7.64709 6.80706 7.64042 6.81373 7.65375Z" fill="white"/>
<path d="M6.17377 8.58671C6.07377 8.58671 6.00049 8.50671 6.00049 8.40676C6.00049 8.36009 6.02049 8.31342 6.05382 8.28009L6.73367 7.6002C6.77367 7.56686 6.827 7.56686 6.867 7.6002L7.43356 8.16676C7.47356 8.20009 7.47356 8.26009 7.43356 8.30009C7.42023 8.31342 7.40689 8.32009 7.38689 8.32676L6.21377 8.58004C6.20044 8.58004 6.1871 8.58671 6.17377 8.58671ZM6.79367 7.72686L6.14044 8.38009C6.1271 8.39342 6.12044 8.41342 6.13377 8.43342C6.14044 8.45342 6.16044 8.46004 6.18044 8.45342L7.28023 8.21342L6.79367 7.72686Z" fill="#FF6C37"/>
<path d="M11.8928 4.05445C11.4663 3.64117 10.7797 3.65451 10.3665 4.08779C9.95318 4.52102 9.96652 5.20091 10.3998 5.61414C10.5708 5.77938 10.7917 5.88337 11.028 5.90991C11.2643 5.93644 11.5028 5.88401 11.7062 5.76081L10.9463 5.00091L11.8928 4.05445H11.8928Z" fill="white"/>
<path d="M11.1465 5.98042C10.5132 5.98042 10 5.46719 10 4.83396C10 4.20073 10.5132 3.6875 11.1465 3.6875C11.4397 3.6875 11.7264 3.80083 11.9397 4.00745C11.953 4.02078 11.9596 4.03411 11.9596 4.05411C11.9596 4.07411 11.953 4.08745 11.9396 4.10078L11.0398 5.00057L11.7464 5.70714C11.773 5.7338 11.773 5.7738 11.7464 5.80047L11.733 5.8138C11.5597 5.92042 11.3531 5.98042 11.1465 5.98042ZM11.1465 3.8275C10.5866 3.8275 10.1333 4.28073 10.1399 4.84062C10.1399 5.40052 10.5932 5.8538 11.1531 5.84714C11.3064 5.84714 11.4597 5.8138 11.5997 5.74047L10.8998 5.04724C10.8865 5.03391 10.8798 5.02057 10.8798 5.00057C10.8798 4.98063 10.8865 4.96724 10.8998 4.95396L11.793 4.06073C11.613 3.90745 11.3864 3.8275 11.1465 3.8275Z" fill="#FF6C37"/>
<path d="M11.9127 4.07437L11.8994 4.06104L10.9463 5.00083L11.6995 5.75406C11.7728 5.70739 11.8461 5.65406 11.9061 5.59406C12.0071 5.49514 12.0874 5.37717 12.1425 5.24698C12.1975 5.11679 12.2262 4.97696 12.2268 4.8356C12.2274 4.69425 12.2 4.55418 12.1461 4.42351C12.0922 4.29284 12.0129 4.17416 11.9127 4.07437Z" fill="white"/>
<path d="M11.7064 5.82749C11.6864 5.82749 11.6731 5.82082 11.6597 5.80749L10.8998 5.04759C10.8866 5.03426 10.8799 5.02093 10.8799 5.00093C10.8799 4.98098 10.8865 4.96759 10.8999 4.95431L11.8463 4.0078C11.8524 4.00148 11.8596 3.99645 11.8676 3.99301C11.8756 3.98957 11.8843 3.98779 11.893 3.98779C11.9017 3.98779 11.9104 3.98957 11.9184 3.99301C11.9264 3.99645 11.9337 4.00148 11.9397 4.0078L11.9597 4.02113C12.4063 4.4677 12.4063 5.18759 11.9663 5.64082C11.8997 5.70749 11.8264 5.76749 11.7464 5.81416C11.7264 5.82082 11.7131 5.82749 11.7064 5.82749ZM11.0398 5.00093L11.7131 5.67415C11.7664 5.64082 11.8197 5.59415 11.8597 5.55421C12.2396 5.17426 12.2596 4.55436 11.893 4.15442L11.0399 5.00093H11.0398Z" fill="#FF6C37"/>
<path d="M10.5195 5.73374C10.4426 5.65692 10.3383 5.61377 10.2296 5.61377C10.1208 5.61377 10.0166 5.65692 9.93962 5.73374L7.42676 8.2466L7.84665 8.66655L10.5062 6.33363C10.6795 6.18697 10.6928 5.92702 10.5462 5.75374C10.5329 5.74707 10.5262 5.74041 10.5195 5.73374Z" fill="white"/>
<path d="M7.84009 8.73348C7.82009 8.73348 7.80675 8.72682 7.79342 8.71348L7.37352 8.29353C7.3672 8.28752 7.36217 8.28028 7.35873 8.27226C7.35529 8.26423 7.35352 8.2556 7.35352 8.24687C7.35352 8.23814 7.35529 8.2295 7.35873 8.22148C7.36217 8.21346 7.3672 8.20622 7.37352 8.2002L9.88639 5.68734C9.93051 5.64298 9.98296 5.60777 10.0407 5.58375C10.0985 5.55973 10.1604 5.54736 10.223 5.54736C10.2856 5.54736 10.3475 5.55973 10.4053 5.58375C10.463 5.60777 10.5155 5.64298 10.5596 5.68734C10.604 5.73145 10.6392 5.7839 10.6632 5.84167C10.6872 5.89944 10.6996 5.96139 10.6996 6.02395C10.6996 6.08652 10.6872 6.14846 10.6632 6.20623C10.6392 6.264 10.604 6.31645 10.5596 6.36057L10.5396 6.38057L7.88009 8.71348C7.87342 8.72682 7.86009 8.73348 7.84009 8.73348ZM7.52014 8.24687L7.84675 8.57348L10.4596 6.28057C10.6063 6.16057 10.6196 5.94062 10.4996 5.794C10.3797 5.64734 10.1597 5.634 10.0131 5.754C10.0064 5.76067 9.99972 5.76734 9.98639 5.774L7.52014 8.24687Z" fill="#FF6C37"/>
<path d="M5.50077 11.1064C5.47415 11.1197 5.46082 11.1464 5.46743 11.173L5.58077 11.6529C5.60743 11.7196 5.56743 11.7996 5.4941 11.8196C5.44082 11.8396 5.38082 11.8196 5.34749 11.7796L4.61426 11.053L7.00717 8.66016L7.83374 8.67349L8.39363 9.23339C8.2603 9.34667 7.45379 10.1266 5.50077 11.1064Z" fill="white"/>
<path d="M5.44706 11.886C5.39372 11.886 5.34039 11.866 5.30706 11.826L4.58049 11.0995C4.56721 11.0861 4.56055 11.0728 4.56055 11.0528C4.56055 11.0328 4.56721 11.0195 4.58055 11.0062L6.97341 8.61326C6.98674 8.59993 7.00674 8.59326 7.02008 8.59326L7.84664 8.60659C7.86659 8.60659 7.87997 8.61326 7.89326 8.6266L8.45315 9.18649C8.46648 9.19982 8.47315 9.21982 8.47315 9.23982C8.47315 9.25982 8.46648 9.27316 8.44648 9.28649L8.39982 9.32644C7.69331 9.94633 6.73346 10.5662 5.54034 11.1595L5.65367 11.6327C5.67367 11.7194 5.63367 11.8127 5.55367 11.8593C5.51367 11.8794 5.48034 11.886 5.44706 11.886ZM4.71383 11.0528L5.40039 11.7327C5.42039 11.766 5.46039 11.7794 5.49367 11.7594C5.52701 11.7394 5.54034 11.6994 5.52034 11.666L5.40706 11.1861C5.39372 11.1261 5.42039 11.0728 5.47372 11.0462C6.65346 10.4529 7.60664 9.83972 8.30654 9.23316L7.81331 8.73993L7.04674 8.72659L4.71383 11.0528Z" fill="#FF6C37"/>
<path d="M4.04742 11.626L4.6206 11.0527L5.47383 11.9059L4.11404 11.8126C4.05404 11.8059 4.01404 11.7526 4.02075 11.6926C4.02075 11.6659 4.02742 11.6392 4.04737 11.6259L4.04742 11.626Z" fill="white"/>
<path d="M5.47414 11.9663L4.10768 11.8731C4.00768 11.8664 3.94101 11.7797 3.94773 11.6797C3.9544 11.6397 3.96773 11.5998 4.00106 11.5731L4.57429 10.9999C4.58031 10.9936 4.58755 10.9885 4.59556 10.9851C4.60358 10.9817 4.61221 10.9799 4.62093 10.9799C4.62966 10.9799 4.63829 10.9817 4.6463 10.9851C4.65432 10.9885 4.66156 10.9936 4.66757 10.9999L5.52075 11.853C5.54075 11.8731 5.54742 11.8997 5.53409 11.9263C5.52075 11.953 5.50075 11.9663 5.47414 11.9663ZM4.62091 11.1466L4.09435 11.6731C4.07435 11.6864 4.07435 11.7197 4.09435 11.7331C4.10101 11.7397 4.10768 11.7464 4.12101 11.7464L5.3008 11.8264L4.62091 11.1465V11.1466ZM6.77388 8.96692C6.73388 8.96692 6.70721 8.93358 6.70721 8.90025C6.70721 8.88025 6.71388 8.86691 6.72721 8.85358L7.37377 8.20702C7.37979 8.2007 7.38703 8.19566 7.39505 8.19222C7.40307 8.18878 7.41171 8.18701 7.42044 8.18701C7.42917 8.18701 7.4378 8.18878 7.44583 8.19222C7.45385 8.19566 7.46109 8.2007 7.46711 8.20702L7.887 8.62697C7.907 8.64697 7.91367 8.66697 7.907 8.69363C7.90033 8.71363 7.88033 8.73363 7.85367 8.7403L6.78721 8.96686H6.77388V8.96692ZM7.42044 8.34702L6.98049 8.78691L7.70039 8.63363L7.42044 8.34702Z" fill="#FF6C37"/>
<path d="M7.83361 8.67353L7.10043 8.83348C7.0471 8.84682 6.99377 8.81348 6.98043 8.76015C6.97377 8.72682 6.98043 8.69348 7.0071 8.66687L7.41371 8.26025L7.83361 8.67353Z" fill="white"/>
<path d="M7.08709 8.90024C7.06514 8.90046 7.04336 8.8963 7.02304 8.88801C7.00272 8.87971 6.98426 8.86744 6.96874 8.85192C6.95322 8.8364 6.94095 8.81794 6.93265 8.79762C6.92435 8.7773 6.9202 8.75552 6.92042 8.73357C6.92042 8.68696 6.94042 8.64696 6.96709 8.61363L7.3737 8.20701C7.37972 8.20069 7.38696 8.19566 7.39498 8.19222C7.403 8.18878 7.41164 8.187 7.42037 8.187C7.42909 8.187 7.43773 8.18878 7.44575 8.19222C7.45378 8.19566 7.46102 8.20069 7.46703 8.20701L7.88693 8.62696C7.90693 8.64696 7.9136 8.66696 7.90693 8.69363C7.90026 8.71363 7.88026 8.73363 7.8536 8.74029L7.12042 8.90024H7.08709ZM7.42037 8.34701L7.06042 8.70691C7.04709 8.72029 7.04709 8.73363 7.05375 8.74691C7.06042 8.76024 7.07375 8.76691 7.09375 8.76691L7.70698 8.63357L7.42037 8.34701ZM11.9195 4.7143C11.9062 4.67435 11.8595 4.65436 11.8195 4.66769C11.7796 4.68102 11.7596 4.72764 11.7729 4.76769C11.7729 4.7743 11.7796 4.78097 11.7796 4.78764C11.8196 4.86764 11.8063 4.96764 11.7529 5.04092C11.7263 5.07425 11.7329 5.12092 11.7596 5.14758C11.7929 5.17425 11.8395 5.16758 11.8662 5.13425C11.9662 5.00758 11.9862 4.84764 11.9195 4.7143Z" fill="#FF6C37"/>
</g>
<defs>
<clipPath id="clip0_0_10475">
<rect width="13.3333" height="13.3333" fill="white" transform="translate(1.3335 1.3335)"/>
</clipPath>
</defs>
</svg>
