<svg width="16" height="16" viewBox="0 0 16 16" fill="none" xmlns="http://www.w3.org/2000/svg">
<path d="M7.99967 1.3335C4.31967 1.3335 1.33301 4.32016 1.33301 8.00016C1.33301 11.6802 4.31967 14.6668 7.99967 14.6668C11.6797 14.6668 14.6663 11.6802 14.6663 8.00016C14.6663 4.32016 11.6797 1.3335 7.99967 1.3335ZM5.68634 8.98016C5.87967 9.1735 5.87967 9.4935 5.68634 9.68683C5.58634 9.78683 5.45967 9.8335 5.33301 9.8335C5.20634 9.8335 5.07967 9.78683 4.97967 9.68683L3.64634 8.3535C3.45301 8.16016 3.45301 7.84016 3.64634 7.64683L4.97967 6.3135C5.17301 6.12016 5.49301 6.12016 5.68634 6.3135C5.87967 6.50683 5.87967 6.82683 5.68634 7.02016L4.70634 8.00016L5.68634 8.98016ZM9.12634 6.64016L7.79301 9.7535C7.71301 9.94016 7.52634 10.0535 7.33301 10.0535C7.26634 10.0535 7.19967 10.0402 7.13967 10.0135C6.88634 9.90683 6.76634 9.6135 6.87967 9.3535L8.21301 6.24016C8.31967 5.98683 8.61301 5.86683 8.86634 5.98016C9.11967 6.0935 9.23301 6.38683 9.12634 6.64016ZM12.353 8.3535L11.0197 9.68683C10.9197 9.78683 10.793 9.8335 10.6663 9.8335C10.5397 9.8335 10.413 9.78683 10.313 9.68683C10.1197 9.4935 10.1197 9.1735 10.313 8.98016L11.293 8.00016L10.313 7.02016C10.1197 6.82683 10.1197 6.50683 10.313 6.3135C10.5063 6.12016 10.8263 6.12016 11.0197 6.3135L12.353 7.64683C12.5463 7.84016 12.5463 8.16016 12.353 8.3535Z" fill="#9F95E1"/>
</svg>
