<svg width="20" height="20" viewBox="0 0 20 20" fill="none" xmlns="http://www.w3.org/2000/svg">
<path d="M12.2751 1.6665H7.7251V5.29984H12.2751V1.6665Z" fill="#A0A7B9"/>
<path d="M12.2751 1.6665H7.7251V5.29984H12.2751V1.6665Z" stroke="white"/>
<path d="M13.5249 1.6665V5.29984H18.2249C17.7999 3.00817 16.1082 1.67484 13.5249 1.6665Z" fill="#A0A7B9"/>
<path d="M1.6665 6.5498V13.4915C1.6665 16.5248 3.47484 18.3331 6.50817 18.3331H13.4915C16.5248 18.3331 18.3332 16.5248 18.3332 13.4915V6.5498H1.6665ZM12.0332 13.4831L10.2998 14.4831C9.93317 14.6915 9.57484 14.7998 9.2415 14.7998C8.9915 14.7998 8.7665 14.7415 8.55817 14.6248C8.07484 14.3498 7.80817 13.7831 7.80817 13.0498V11.0498C7.80817 10.3165 8.07484 9.7498 8.55817 9.4748C9.0415 9.19147 9.65817 9.24147 10.2998 9.61647L12.0332 10.6165C12.6748 10.9831 13.0248 11.4998 13.0248 12.0581C13.0248 12.6165 12.6665 13.1081 12.0332 13.4831Z" fill="#A0A7B9"/>
<path d="M6.4749 1.6665C3.89157 1.67484 2.1999 3.00817 1.7749 5.29984H6.4749V1.6665Z" fill="#A0A7B9"/>
</svg>
