<svg width="21" height="20" viewBox="0 0 21 20" fill="none" xmlns="http://www.w3.org/2000/svg">
<path d="M10.4998 1.6665C8.3165 1.6665 6.5415 3.4415 6.5415 5.62484C6.5415 7.7665 8.2165 9.49984 10.3998 9.57484C10.4665 9.5665 10.5332 9.5665 10.5832 9.57484H10.6248H10.6415C12.7748 9.49984 14.4498 7.7665 14.4582 5.62484C14.4582 3.4415 12.6832 1.6665 10.4998 1.6665Z" fill="#A0A7B9"/>
<path d="M10.4998 1.6665C8.3165 1.6665 6.5415 3.4415 6.5415 5.62484C6.5415 7.7665 8.2165 9.49984 10.3998 9.57484C10.4665 9.5665 10.5332 9.5665 10.5832 9.57484H10.6248H10.6415C12.7748 9.49984 14.4498 7.7665 14.4582 5.62484C14.4582 3.4415 12.6832 1.6665 10.4998 1.6665Z" stroke="white"/>
<path d="M14.7333 11.7919C12.4083 10.2419 8.61663 10.2419 6.27497 11.7919C5.21663 12.5002 4.6333 13.4586 4.6333 14.4836C4.6333 15.5086 5.21663 16.4586 6.26663 17.1586C7.4333 17.9419 8.96663 18.3336 10.5 18.3336C12.0333 18.3336 13.5666 17.9419 14.7333 17.1586C15.7833 16.4502 16.3666 15.5002 16.3666 14.4669C16.3583 13.4419 15.7833 12.4919 14.7333 11.7919Z" fill="#A0A7B9"/>
<path d="M14.7333 11.7919C12.4083 10.2419 8.61663 10.2419 6.27497 11.7919C5.21663 12.5002 4.6333 13.4586 4.6333 14.4836C4.6333 15.5086 5.21663 16.4586 6.26663 17.1586C7.4333 17.9419 8.96663 18.3336 10.5 18.3336C12.0333 18.3336 13.5666 17.9419 14.7333 17.1586C15.7833 16.4502 16.3666 15.5002 16.3666 14.4669C16.3583 13.4419 15.7833 12.4919 14.7333 11.7919Z" stroke="white"/>
</svg>
