<svg width="16" height="16" viewBox="0 0 16 16" fill="none" xmlns="http://www.w3.org/2000/svg">
<g clip-path="url(#clip0_0_10497)">
<mask id="mask0_0_10497" style="mask-type:luminance" maskUnits="userSpaceOnUse" x="1" y="1" width="14" height="14">
<path d="M10.7516 14.5936C10.8573 14.6351 10.9703 14.6543 11.0837 14.6499C11.197 14.6455 11.3083 14.6176 11.4105 14.568L14.1449 13.242C14.2857 13.1736 14.4046 13.0666 14.4877 12.9332C14.5709 12.7998 14.615 12.6455 14.6149 12.4879V3.49603C14.615 3.3385 14.5709 3.18417 14.4877 3.05079C14.4045 2.91741 14.2857 2.81039 14.1449 2.74206L11.4105 1.41592C11.256 1.34099 11.0822 1.31631 10.9132 1.34532C10.7441 1.37432 10.5882 1.45557 10.467 1.57781L5.23229 6.3912L2.95208 4.64674C2.84923 4.56804 2.72229 4.52813 2.59328 4.53391C2.46428 4.53969 2.34135 4.59081 2.24583 4.67839L1.51453 5.34889C1.27339 5.56994 1.27313 5.9523 1.51391 6.17372L3.49135 7.99198L1.51391 9.8102C1.27313 10.0317 1.27339 10.414 1.51453 10.6351L2.24583 11.3055C2.34135 11.3931 2.46427 11.4442 2.59327 11.45C2.72228 11.4558 2.84922 11.4159 2.95208 11.3372L5.23229 9.59272L10.467 14.4061C10.548 14.4878 10.6449 14.5516 10.7516 14.5936ZM11.2966 4.95319L7.32464 7.99198L11.2966 11.0307V4.95319Z" fill="#9F95E1"/>
</mask>
<g mask="url(#mask0_0_10497)">
<path d="M14.153 2.74402L11.4165 1.41604C11.2619 1.34104 11.088 1.31632 10.9189 1.34528C10.7498 1.37425 10.5938 1.45547 10.4725 1.57772L1.514 9.81011C1.27307 10.0316 1.27338 10.4139 1.51463 10.635L2.2464 11.3054C2.342 11.393 2.465 11.4442 2.59408 11.45C2.72316 11.4558 2.85018 11.4158 2.95312 11.3371L13.7412 3.08853C14.1032 2.81184 14.623 3.072 14.623 3.52984V3.49782C14.623 3.34033 14.5789 3.18603 14.4958 3.05268C14.4126 2.91933 14.2938 2.81234 14.153 2.74402Z" fill="#0065A9"/>
</g>
<mask id="mask1_0_10497" style="mask-type:luminance" maskUnits="userSpaceOnUse" x="1" y="1" width="14" height="14">
<path d="M10.7516 14.5936C10.8573 14.6351 10.9703 14.6543 11.0837 14.6499C11.197 14.6455 11.3083 14.6176 11.4105 14.568L14.1449 13.242C14.2857 13.1736 14.4046 13.0666 14.4877 12.9332C14.5709 12.7998 14.615 12.6455 14.6149 12.4879V3.49603C14.615 3.3385 14.5709 3.18417 14.4877 3.05079C14.4045 2.91741 14.2857 2.81039 14.1449 2.74206L11.4105 1.41592C11.256 1.34099 11.0822 1.31631 10.9132 1.34532C10.7441 1.37432 10.5882 1.45557 10.467 1.57781L5.23229 6.3912L2.95208 4.64674C2.84923 4.56804 2.72229 4.52813 2.59328 4.53391C2.46428 4.53969 2.34135 4.59081 2.24583 4.67839L1.51453 5.34889C1.27339 5.56994 1.27313 5.9523 1.51391 6.17372L3.49135 7.99198L1.51391 9.8102C1.27313 10.0317 1.27339 10.414 1.51453 10.6351L2.24583 11.3055C2.34135 11.3931 2.46427 11.4442 2.59327 11.45C2.72228 11.4558 2.84922 11.4159 2.95208 11.3372L5.23229 9.59272L10.467 14.4061C10.548 14.4878 10.6449 14.5516 10.7516 14.5936ZM11.2966 4.95319L7.32464 7.99198L11.2966 11.0307V4.95319Z" fill="#007ACC"/>
</mask>
<g mask="url(#mask1_0_10497)">
<path d="M14.153 13.2397L11.4165 14.5677C11.2619 14.6426 11.088 14.6673 10.9189 14.6384C10.7498 14.6094 10.5938 14.5282 10.4725 14.406L1.514 6.17358C1.27307 5.95217 1.27338 5.5698 1.51463 5.34875L2.2464 4.67826C2.342 4.59066 2.46501 4.53953 2.59409 4.53375C2.72317 4.52797 2.85018 4.5679 2.95312 4.6466L13.7412 12.8952C14.1032 13.1719 14.623 12.9117 14.623 12.4538V12.4859C14.623 12.6434 14.5789 12.7977 14.4958 12.931C14.4126 13.0644 14.2938 13.1713 14.153 13.2397Z" fill="#007ACC"/>
</g>
<mask id="mask2_0_10497" style="mask-type:luminance" maskUnits="userSpaceOnUse" x="1" y="1" width="14" height="14">
<path d="M10.7516 14.5936C10.8573 14.6351 10.9703 14.6543 11.0837 14.6499C11.197 14.6455 11.3083 14.6176 11.4105 14.568L14.1449 13.242C14.2857 13.1736 14.4046 13.0666 14.4877 12.9332C14.5709 12.7998 14.615 12.6455 14.6149 12.4879V3.49603C14.615 3.3385 14.5709 3.18417 14.4877 3.05079C14.4045 2.91741 14.2857 2.81039 14.1449 2.74206L11.4105 1.41592C11.256 1.34099 11.0822 1.31631 10.9132 1.34532C10.7441 1.37432 10.5882 1.45557 10.467 1.57781L5.23229 6.3912L2.95208 4.64674C2.84923 4.56804 2.72229 4.52813 2.59328 4.53391C2.46428 4.53969 2.34135 4.59081 2.24583 4.67839L1.51453 5.34889C1.27339 5.56994 1.27313 5.9523 1.51391 6.17372L3.49135 7.99198L1.51391 9.8102C1.27313 10.0317 1.27339 10.414 1.51453 10.6351L2.24583 11.3055C2.34135 11.3931 2.46427 11.4442 2.59327 11.45C2.72228 11.4558 2.84922 11.4159 2.95208 11.3372L5.23229 9.59272L10.467 14.4061C10.548 14.4878 10.6449 14.5516 10.7516 14.5936ZM11.2966 4.95319L7.32464 7.99198L11.2966 11.0307V4.95319Z" fill="#1F9CF0"/>
</mask>
<g mask="url(#mask2_0_10497)">
<path d="M11.4079 14.5685C11.2533 14.6434 11.0794 14.6681 10.9103 14.6391C10.7412 14.6101 10.5852 14.5289 10.4639 14.4067C10.7702 14.7153 11.294 14.4967 11.294 14.06V1.92487C11.294 1.48823 10.7702 1.26959 10.4639 1.57831C10.5852 1.45605 10.7412 1.37481 10.9103 1.34581C11.0794 1.3168 11.2533 1.34148 11.4079 1.41642L14.144 2.74256C14.2849 2.81084 14.4037 2.91784 14.4869 3.05122C14.5701 3.18461 14.6143 3.33896 14.6143 3.49652V12.4885C14.6143 12.81 14.4315 13.1031 14.144 13.2425L11.4079 14.5685Z" fill="#1F9CF0"/>
</g>
<mask id="mask3_0_10497" style="mask-type:luminance" maskUnits="userSpaceOnUse" x="1" y="1" width="14" height="14">
<path d="M10.7516 14.5936C10.8573 14.6351 10.9703 14.6543 11.0837 14.6499C11.197 14.6455 11.3083 14.6176 11.4105 14.568L14.1449 13.242C14.2857 13.1736 14.4046 13.0666 14.4877 12.9332C14.5709 12.7998 14.615 12.6455 14.6149 12.4879V3.49603C14.615 3.3385 14.5709 3.18417 14.4877 3.05079C14.4045 2.91741 14.2857 2.81039 14.1449 2.74206L11.4105 1.41592C11.256 1.34099 11.0822 1.31631 10.9132 1.34532C10.7441 1.37432 10.5882 1.45557 10.467 1.57781L5.23229 6.3912L2.95208 4.64674C2.84923 4.56804 2.72229 4.52813 2.59328 4.53391C2.46428 4.53969 2.34135 4.59081 2.24583 4.67839L1.51453 5.34889C1.27339 5.56994 1.27313 5.9523 1.51391 6.17372L3.49135 7.99198L1.51391 9.8102C1.27313 10.0317 1.27339 10.414 1.51453 10.6351L2.24583 11.3055C2.34135 11.3931 2.46427 11.4442 2.59327 11.45C2.72228 11.4558 2.84922 11.4159 2.95208 11.3372L5.23229 9.59272L10.467 14.4061C10.548 14.4878 10.6449 14.5516 10.7516 14.5936ZM11.2966 4.95319L7.32464 7.99198L11.2966 11.0307V4.95319Z" fill="url(#paint0_linear_0_10497)" fill-opacity="0.25"/>
</mask>
<g mask="url(#mask3_0_10497)">
<path d="M10.7516 14.5936C10.8573 14.6351 10.9703 14.6543 11.0837 14.6499C11.197 14.6455 11.3083 14.6177 11.4105 14.5681L14.1448 13.2419C14.2857 13.1736 14.4045 13.0666 14.4877 12.9332C14.5709 12.7998 14.615 12.6455 14.6149 12.488V3.49606C14.615 3.33854 14.5709 3.1842 14.4877 3.05082C14.4045 2.91744 14.2857 2.81043 14.1449 2.7421L11.4104 1.4159C11.2559 1.34098 11.0821 1.31632 10.9131 1.34532C10.7441 1.37432 10.5882 1.45556 10.467 1.57779L5.23229 6.39123L2.95208 4.64677C2.84923 4.56808 2.72229 4.52816 2.59328 4.53394C2.46428 4.53973 2.34135 4.59084 2.24583 4.67842L1.51453 5.34892C1.27339 5.56997 1.27313 5.95234 1.51391 6.17375L3.49135 7.99202L1.51391 9.81024C1.27313 10.0317 1.27339 10.414 1.51453 10.6351L2.24583 11.3056C2.34135 11.3932 2.46427 11.4443 2.59327 11.4501C2.72228 11.4559 2.84922 11.416 2.95208 11.3373L5.23229 9.59276L10.467 14.4061C10.5479 14.4878 10.6449 14.5517 10.7516 14.5936ZM11.2966 4.95318L7.32464 7.99202L11.2966 11.0308V4.95318Z" fill="url(#paint1_linear_0_10497)" fill-opacity="0.25"/>
</g>
</g>
<defs>
<linearGradient id="paint0_linear_0_10497" x1="665.406" y1="1.3335" x2="665.406" y2="1333.03" gradientUnits="userSpaceOnUse">
<stop stop-color="white"/>
<stop offset="1" stop-color="white" stop-opacity="0"/>
</linearGradient>
<linearGradient id="paint1_linear_0_10497" x1="665.406" y1="1.3335" x2="665.406" y2="1333.04" gradientUnits="userSpaceOnUse">
<stop stop-color="white"/>
<stop offset="1" stop-color="white" stop-opacity="0"/>
</linearGradient>
<clipPath id="clip0_0_10497">
<rect width="13.3333" height="13.3333" fill="white" transform="translate(1.3335 1.3335)"/>
</clipPath>
</defs>
</svg>
