<svg width="1440" height="178" viewBox="0 0 1440 178" fill="none" xmlns="http://www.w3.org/2000/svg">
<g clip-path="url(#clip0_0_6280)">
<path d="M29.7063 234.289C-1.18214 220.173 -14.7752 183.687 -0.651979 152.802C13.4688 121.922 49.9489 108.336 80.8286 122.457L173.952 165.041C204.804 179.149 241.251 165.575 255.358 134.724C269.466 103.872 305.913 90.2991 336.765 104.407L429.764 146.934C460.648 161.057 497.132 147.469 511.255 116.586C525.377 85.7022 561.862 72.1148 592.745 86.2373L685.745 128.764C716.596 142.872 753.043 129.299 767.151 98.4474C781.259 67.5959 817.705 54.0225 848.557 68.1304L947.208 113.242C975.593 126.222 1009.18 115.048 1024.14 87.6515C1038.27 61.7642 1069.24 50.144 1096.91 60.3463L1198.06 97.6419C1229.35 109.175 1264.23 94.6582 1278.09 64.339C1292.74 32.3197 1330.56 18.2326 1362.58 32.8744L1436.85 66.8362C1476.99 85.1923 1494.68 132.592 1476.38 172.759L1237.08 697.989C1218.75 738.228 1171.25 755.962 1131.03 737.583L29.7063 234.289Z" fill="#E2DFF6"/>
</g>
<defs>
<clipPath id="clip0_0_6280">
<rect width="1559" height="249" fill="white" transform="translate(-38)"/>
</clipPath>
</defs>
</svg>
