<svg width="48" height="48" viewBox="0 0 48 48" fill="none" xmlns="http://www.w3.org/2000/svg">
<rect width="48" height="48" rx="24" fill="#9F95E1"/>
<mask id="mask0_0_10289" style="mask-type:luminance" maskUnits="userSpaceOnUse" x="7" y="9" width="35" height="27">
<path d="M7.20019 9.60001L7.2002 36L41.3996 36L41.3996 9.60001L7.20019 9.60001Z" fill="white"/>
</mask>
<g mask="url(#mask0_0_10289)">
<path opacity="0.6" d="M19.5721 9.59924C21.5917 9.59934 23.0343 11.5547 22.4384 13.4845L16.1383 33.8843C15.75 35.1415 14.5877 35.999 13.2719 35.999L11.2668 35.999C9.24701 35.999 7.80432 34.0434 8.40048 32.1136L11.4568 22.2199C11.4582 22.2153 11.4608 22.2111 11.4623 22.2064C11.4641 22.2007 11.464 22.1945 11.4658 22.1887L14.7001 11.714C15.0884 10.4567 16.2508 9.59907 17.5667 9.59914L19.5721 9.59924Z" fill="white"/>
<path d="M29.0831 9.60042C31.1029 9.60042 32.5455 11.5559 31.9496 13.4857L25.6496 33.8852C25.2613 35.1425 24.099 36 22.7832 36L20.776 36C18.7563 36 17.3137 34.0447 17.9095 32.115L20.8826 22.4855L24.2121 11.7144C24.6006 10.4575 25.7627 9.60042 27.0783 9.60042L29.0831 9.60042Z" fill="white"/>
<path d="M40.2005 32.115C40.7963 34.0448 39.3536 36 37.334 36L35.3318 36C34.0162 36 32.8541 35.1429 32.4656 33.886L31.6482 31.2419C31.6479 31.2407 31.6477 31.2395 31.6477 31.2382C31.6477 31.237 31.6475 31.2357 31.6471 31.2345L29.914 25.6226C29.7359 25.0458 29.7359 24.4287 29.9141 23.8519L30.9157 20.6094C31.7867 17.7897 35.7781 17.79 36.6486 20.6098L40.2005 32.115Z" fill="white"/>
</g>
</svg>
