<svg width="56" height="56" viewBox="0 0 56 56" fill="none" xmlns="http://www.w3.org/2000/svg">
<rect width="56" height="56" rx="20" fill="#FFE01B"/>
<path d="M42.1718 32.1093L41.648 30.6252C41.648 30.6252 43.8304 27.308 38.4181 26.1731C38.4181 26.1731 38.7673 22.0702 36.8468 20.1497C41.037 16.0468 40.0767 9.84879 30.5614 13.8644C25.6729 4.52374 6.81694 26.435 14.6736 29.9269C13.8879 30.9744 13.8879 36.2122 19.3003 36.736C22.9667 44.5926 31.8709 45.1164 37.0214 42.7594C42.1718 40.4024 45.1399 32.8949 42.1718 32.1093ZM19.213 35.6011C14.7609 35.1646 14.3244 29.0539 18.1654 28.4428C22.0064 27.8318 22.9667 35.9503 19.213 35.6011ZM17.9035 27.308C16.6814 27.308 15.1974 28.9666 15.1974 28.9666C9.26122 26.0858 25.9348 6.96803 29.5139 14.3882C29.5139 14.3882 20.7843 18.5784 17.9035 27.308ZM35.3627 34.7282C35.3627 34.379 33.5295 35.2519 30.2123 34.1171C30.4741 32.2839 34.4025 35.6884 40.9497 31.2363L41.4734 33.0695C43.9177 32.633 41.4734 40.9262 33.6168 40.8389C27.2442 40.7516 25.2364 34.2044 28.7282 30.6252C29.4266 29.9269 26.1966 28.5301 26.8077 25.4748C27.0696 24.1653 28.2045 22.2448 31.0852 22.7686C33.966 23.2924 34.5771 20.6735 36.4976 21.6338C38.4181 22.594 37.2832 26.2604 37.5451 26.7842C37.807 27.308 40.6005 27.3953 41.1243 28.8793C41.648 30.3634 37.5451 33.5933 31.1725 32.7203C29.6885 32.5458 28.8155 34.4663 29.7758 35.6884C31.6963 38.4819 39.5529 36.6487 40.8624 33.9425C37.5451 36.4741 30.736 37.4343 30.2123 34.7282C32.1328 35.6011 35.3627 35.0773 35.3627 34.7282ZM23.927 20.9354C25.8475 18.5784 28.379 17.1817 28.379 17.1817L27.8553 18.4911C27.8553 18.4911 29.6885 17.0944 31.6963 17.0944L30.9979 17.7927C33.2676 17.88 34.2279 18.753 34.2279 18.753C34.2279 18.753 28.9028 17.1817 23.927 20.9354ZM35.7119 24.3399C36.8468 24.2526 36.4976 26.8715 36.4976 26.8715H35.7992C35.7992 26.8715 34.5771 24.4272 35.7119 24.3399ZM30.5614 27.2207C29.7758 27.308 28.9028 27.7445 28.9901 27.3953C29.3393 25.9986 32.5693 26.3477 32.482 27.5699C32.3947 28.792 31.6963 27.0461 30.5614 27.2207ZM32.3947 28.2682C32.482 28.4428 31.7836 28.2682 31.2598 28.3555C30.736 28.4428 30.2123 28.7047 30.2123 28.5301C30.2123 28.3555 32.2201 27.5699 32.3947 28.2682ZM34.1406 28.5301C34.4025 28.0064 35.45 28.5301 35.1881 29.0539C34.9262 29.5777 33.8787 29.0539 34.1406 28.5301ZM36.323 28.7047C35.7992 28.7047 35.7992 27.5699 36.323 27.5699C36.8468 27.5699 36.8468 28.792 36.323 28.792V28.7047ZM20.6097 33.3314C20.8716 33.5933 20.0859 34.1171 19.4749 33.6806C18.8638 33.2441 20.1732 31.149 18.6019 30.6252C17.0306 30.1015 17.467 32.1093 17.0306 31.8474C16.5941 31.5855 17.6416 28.792 19.4749 29.9269C21.3081 31.0617 18.9511 32.8076 19.9986 33.3314C21.0462 33.8552 20.4351 33.1568 20.6097 33.3314Z" fill="#1E1E1E"/>
</svg>
