<svg width="56" height="56" viewBox="0 0 56 56" fill="none" xmlns="http://www.w3.org/2000/svg">
<rect width="56" height="56" rx="20" fill="#95BF46"/>
<path d="M41.2889 15.7351C41.2612 15.533 41.0843 15.4214 40.9381 15.4091C40.7923 15.3968 37.7044 15.168 37.7044 15.168C37.7044 15.168 35.5599 13.039 35.3246 12.8034C35.089 12.5678 34.6291 12.6394 34.4507 12.6921C34.4242 12.6998 33.982 12.8363 33.2504 13.0625C32.534 11.0013 31.2698 9.10686 29.0456 9.10686C28.9843 9.10686 28.921 9.10944 28.8578 9.11299C28.2252 8.27648 27.4416 7.91309 26.7649 7.91309C21.5838 7.91309 19.1084 14.3899 18.3323 17.6814C16.3191 18.3053 14.8888 18.7487 14.7061 18.8061C13.5824 19.1586 13.5469 19.1941 13.3994 20.2529C13.288 21.0546 10.3477 43.7941 10.3477 43.7941L33.2598 48.087L45.6745 45.4012C45.6745 45.4012 41.3164 15.9371 41.2889 15.7351ZM31.984 13.4543C31.4086 13.6325 30.7544 13.8348 30.0454 14.0543C30.046 13.9178 30.0467 13.7832 30.0467 13.6364C30.0467 12.3551 29.8689 11.3237 29.5836 10.5059C30.7296 10.6498 31.4928 11.9536 31.984 13.4543ZM28.162 10.7599C28.4805 11.5583 28.6877 12.704 28.6877 14.2502C28.6877 14.3293 28.687 14.4015 28.6864 14.4748C27.4255 14.8653 26.0555 15.2894 24.6823 15.7147C25.4533 12.7392 26.8985 11.3021 28.162 10.7599ZM26.6225 9.30276C26.8462 9.30276 27.0715 9.3786 27.287 9.52705C25.6266 10.3084 23.8468 12.2764 23.0951 16.2062C21.9965 16.5464 20.9228 16.8788 19.9301 17.1864C20.8105 14.1889 22.9012 9.30276 26.6225 9.30276Z" fill="white"/>
<path d="M40.9388 15.4091C40.7929 15.3968 37.705 15.168 37.705 15.168C37.705 15.168 35.5605 13.039 35.3252 12.8034C35.2371 12.7156 35.1184 12.6707 34.9941 12.6514L33.2617 48.0867L45.6752 45.4012C45.6752 45.4012 41.317 15.9371 41.2896 15.735C41.2618 15.533 41.085 15.4213 40.9388 15.4091Z" fill="#D5F4C0"/>
<path d="M29.0456 22.2689L27.5149 26.8223C27.5149 26.8223 26.1736 26.1065 24.5297 26.1065C22.1195 26.1065 21.9982 27.6191 21.9982 28.0002C21.9982 30.0799 27.4194 30.8767 27.4194 35.748C27.4194 39.5804 24.9886 42.0483 21.7109 42.0483C17.7778 42.0483 15.7666 39.6004 15.7666 39.6004L16.8197 36.1211C16.8197 36.1211 18.8871 37.8961 20.6317 37.8961C21.7716 37.8961 22.2354 36.9986 22.2354 36.3428C22.2354 33.6299 17.7879 33.5089 17.7879 29.0514C17.7879 25.2996 20.4807 21.6689 25.9164 21.6689C28.0109 21.6689 29.0456 22.2689 29.0456 22.2689Z" fill="#95BF46"/>
</svg>
