<svg width="56" height="56" viewBox="0 0 56 56" fill="none" xmlns="http://www.w3.org/2000/svg">
<rect width="56" height="56" rx="20" fill="#6772E5"/>
<path d="M25.2812 21.086C25.2812 19.6248 26.4999 19.0613 28.4525 19.0613C31.2962 19.0613 34.9066 19.9328 37.7503 21.466V12.6662C34.651 11.4278 31.5583 10.9561 28.4591 10.9561C20.878 10.9561 15.8262 14.9137 15.8262 21.5315C15.8262 31.8777 30.0316 30.2003 30.0316 34.6624C30.0316 36.3922 28.5312 36.9492 26.4475 36.9492C23.3548 36.9492 19.3579 35.6715 16.2193 33.9679V42.3876C19.4476 43.7803 22.9251 44.5026 26.441 44.5106C34.212 44.5106 39.5653 41.1689 39.5653 34.4462C39.5653 23.2941 25.2812 25.2926 25.2812 21.086Z" fill="white"/>
</svg>
