<svg width="130" height="32" viewBox="0 0 130 32" fill="none" xmlns="http://www.w3.org/2000/svg">
<rect width="32" height="32" rx="16" fill="#9F95E1"/>
<mask id="mask0_0_10554" style="mask-type:luminance" maskUnits="userSpaceOnUse" x="4" y="6" width="24" height="18">
<path d="M4.80029 6.40001L4.80029 24L27.5999 24L27.5999 6.40001L4.80029 6.40001Z" fill="white"/>
</mask>
<g mask="url(#mask0_0_10554)">
<path opacity="0.6" d="M13.0482 6.39941C14.3947 6.39948 15.3564 7.70308 14.9591 8.98957L10.759 22.5894C10.5002 23.4276 9.72532 23.9993 8.84808 23.9993L7.51138 23.9993C6.16484 23.9993 5.20305 22.6955 5.60049 21.409L7.63803 14.8132C7.63898 14.8101 7.64071 14.8073 7.64168 14.8042C7.64288 14.8004 7.64286 14.7962 7.64404 14.7924L9.80024 7.80928C10.0591 6.97102 10.834 6.3993 11.7113 6.39934L13.0482 6.39941Z" fill="white"/>
<path d="M19.3889 6.40004C20.7354 6.40004 21.6972 7.70367 21.2999 8.99019L17.0999 22.5899C16.841 23.4281 16.0662 23.9998 15.1889 23.9998L13.8508 23.9998C12.5044 23.9998 11.5426 22.6962 11.9398 21.4097L13.9219 14.9901L16.1416 7.80938C16.4006 6.97145 17.1753 6.40004 18.0524 6.40004L19.3889 6.40004Z" fill="white"/>
<path d="M26.8002 21.4098C27.1974 22.6963 26.2356 23.9998 24.8892 23.9998L23.5544 23.9998C22.6773 23.9998 21.9026 23.4284 21.6436 22.5904L21.0987 20.8277C21.0984 20.8269 21.0983 20.8261 21.0983 20.8252C21.0983 20.8244 21.0982 20.8236 21.0979 20.8228L19.9425 17.0815C19.8238 16.697 19.8238 16.2856 19.9426 15.901L20.6103 13.7393C21.191 11.8595 23.8519 11.8598 24.4322 13.7396L26.8002 21.4098Z" fill="white"/>
</g>
<path d="M40 23.2763V12.1941H42.5258V14.0772H42.6572C42.8908 13.4423 43.2777 12.9468 43.8179 12.5909C44.3581 12.2302 45.0029 12.0498 45.7524 12.0498C46.5116 12.0498 47.1516 12.2326 47.6723 12.5981C48.1979 12.9589 48.5678 13.4519 48.7819 14.0772H48.8987C49.1469 13.4615 49.5654 12.9709 50.1543 12.6053C50.748 12.235 51.4513 12.0498 52.264 12.0498C53.2957 12.0498 54.1377 12.3721 54.7898 13.0166C55.4419 13.6611 55.768 14.6015 55.768 15.8377V23.2763H53.1181V16.2417C53.1181 15.5539 52.9332 15.0512 52.5633 14.7338C52.1934 14.4115 51.7408 14.2504 51.2055 14.2504C50.568 14.2504 50.0691 14.4476 49.709 14.842C49.3537 15.2316 49.1761 15.7391 49.1761 16.3644V23.2763H46.5846V16.1335C46.5846 15.5611 46.4094 15.1041 46.059 14.7626C45.7135 14.4211 45.2609 14.2504 44.7012 14.2504C44.3216 14.2504 43.9761 14.3466 43.6646 14.539C43.3531 14.7266 43.1049 14.9935 42.92 15.3398C42.7351 15.6813 42.6426 16.0806 42.6426 16.5375V23.2763H40Z" fill="white"/>
<path d="M63.3399 23.4928C62.2449 23.4928 61.2959 23.2547 60.4929 22.7785C59.6899 22.3023 59.067 21.6361 58.6241 20.7799C58.1861 19.9238 57.9671 18.9233 57.9671 17.7785C57.9671 16.6337 58.1861 15.6308 58.6241 14.7698C59.067 13.9089 59.6899 13.2403 60.4929 12.7641C61.2959 12.2879 62.2449 12.0498 63.3399 12.0498C64.4349 12.0498 65.3839 12.2879 66.1869 12.7641C66.9899 13.2403 67.6104 13.9089 68.0484 14.7698C68.4913 15.6308 68.7127 16.6337 68.7127 17.7785C68.7127 18.9233 68.4913 19.9238 68.0484 20.7799C67.6104 21.6361 66.9899 22.3023 66.1869 22.7785C65.3839 23.2547 64.4349 23.4928 63.3399 23.4928ZM63.3545 21.4004C63.9483 21.4004 64.4447 21.2393 64.8437 20.917C65.2428 20.5899 65.5397 20.1522 65.7343 19.6039C65.9339 19.0556 66.0336 18.4447 66.0336 17.7713C66.0336 17.0931 65.9339 16.4798 65.7343 15.9315C65.5397 15.3783 65.2428 14.9382 64.8437 14.6111C64.4447 14.284 63.9483 14.1205 63.3545 14.1205C62.7462 14.1205 62.2401 14.284 61.8361 14.6111C61.4371 14.9382 61.1378 15.3783 60.9382 15.9315C60.7436 16.4798 60.6462 17.0931 60.6462 17.7713C60.6462 18.4447 60.7436 19.0556 60.9382 19.6039C61.1378 20.1522 61.4371 20.5899 61.8361 20.917C62.2401 21.2393 62.7462 21.4004 63.3545 21.4004Z" fill="white"/>
<path d="M73.3647 19.7987L73.3574 16.6457H73.7808L77.8104 12.1941H80.8983L75.9416 17.6486H75.3941L73.3647 19.7987ZM70.9557 23.2763V8.5H73.5983V23.2763H70.9557ZM77.9929 23.2763L74.3429 18.233L76.1241 16.3932L81.1538 23.2763H77.9929Z" fill="white"/>
<path d="M85.302 8.5V23.2763H82.6594V8.5H85.302Z" fill="white"/>
<path d="M92.9834 23.4928C91.8592 23.4928 90.8883 23.2619 90.0707 22.8001C89.258 22.3336 88.6326 21.6746 88.1946 20.8232C87.7566 19.9671 87.5376 18.9594 87.5376 17.8001C87.5376 16.6602 87.7566 15.6597 88.1946 14.7987C88.6375 13.9329 89.2555 13.2595 90.0488 12.7785C90.8421 12.2927 91.774 12.0498 92.8447 12.0498C93.5358 12.0498 94.1879 12.1604 94.8011 12.3817C95.4192 12.5981 95.9642 12.9348 96.4363 13.3918C96.9132 13.8487 97.288 14.4307 97.5605 15.1378C97.833 15.8401 97.9693 16.677 97.9693 17.6486V18.4495H88.7786V16.689H95.4362C95.4313 16.1888 95.3218 15.7439 95.1077 15.3543C94.8936 14.9598 94.5943 14.6496 94.2098 14.4235C93.8302 14.1975 93.3873 14.0844 92.8812 14.0844C92.341 14.0844 91.8665 14.2143 91.4577 14.474C91.0489 14.729 90.7301 15.0657 90.5014 15.4841C90.2775 15.8978 90.1632 16.3523 90.1583 16.8478V18.3846C90.1583 19.0291 90.2775 19.5823 90.516 20.044C90.7545 20.501 91.0878 20.8521 91.5161 21.0974C91.9444 21.3379 92.4456 21.4582 93.0199 21.4582C93.4044 21.4582 93.7523 21.4052 94.0638 21.2994C94.3753 21.1888 94.6454 21.0277 94.8741 20.816C95.1028 20.6044 95.2756 20.3422 95.3924 20.0296L97.8598 20.3038C97.7041 20.9483 97.4072 21.5111 96.9692 21.9921C96.5361 22.4683 95.9813 22.8386 95.3048 23.1032C94.6283 23.3629 93.8545 23.4928 92.9834 23.4928Z" fill="white"/>
<path d="M103.432 23.5C102.721 23.5 102.081 23.3749 101.512 23.1248C100.947 22.8699 100.499 22.4947 100.168 21.9993C99.8424 21.5038 99.6793 20.893 99.6793 20.1667C99.6793 19.5414 99.7961 19.0243 100.03 18.6154C100.263 18.2066 100.582 17.8795 100.986 17.6342C101.39 17.3889 101.845 17.2037 102.351 17.0786C102.862 16.9488 103.39 16.855 103.935 16.7973C104.592 16.7299 105.125 16.6698 105.534 16.6169C105.943 16.5592 106.24 16.4726 106.425 16.3571C106.614 16.2369 106.709 16.0517 106.709 15.8016V15.7583C106.709 15.2148 106.546 14.7939 106.22 14.4957C105.894 14.1975 105.424 14.0483 104.811 14.0483C104.164 14.0483 103.651 14.1878 103.271 14.4668C102.896 14.7458 102.643 15.0753 102.512 15.4553L100.044 15.1089C100.239 14.4355 100.56 13.8728 101.008 13.4206C101.456 12.9637 102.003 12.6222 102.65 12.3961C103.298 12.1652 104.013 12.0498 104.797 12.0498C105.337 12.0498 105.875 12.1123 106.41 12.2374C106.945 12.3624 107.434 12.5693 107.877 12.8579C108.32 13.1417 108.675 13.5289 108.943 14.0195C109.216 14.5101 109.352 15.1234 109.352 15.8593V23.2763H106.811V21.754H106.724C106.563 22.0618 106.337 22.3504 106.045 22.6198C105.758 22.8843 105.395 23.0984 104.957 23.2619C104.524 23.4206 104.016 23.5 103.432 23.5ZM104.118 21.5808C104.648 21.5808 105.108 21.4774 105.497 21.2706C105.887 21.0589 106.186 20.7799 106.395 20.4336C106.609 20.0873 106.717 19.7097 106.717 19.3009V17.9949C106.634 18.0623 106.493 18.1248 106.293 18.1825C106.098 18.2403 105.879 18.2908 105.636 18.3341C105.393 18.3773 105.152 18.4158 104.913 18.4495C104.675 18.4832 104.468 18.512 104.293 18.5361C103.899 18.589 103.546 18.6756 103.234 18.7958C102.923 18.9161 102.677 19.0844 102.497 19.3009C102.317 19.5125 102.227 19.7867 102.227 20.1234C102.227 20.6044 102.405 20.9675 102.76 21.2128C103.115 21.4582 103.568 21.5808 104.118 21.5808Z" fill="white"/>
<path d="M112.009 23.2763V12.1941H114.571V14.0411H114.688C114.893 13.4014 115.243 12.9084 115.739 12.562C116.241 12.2109 116.812 12.0354 117.455 12.0354C117.601 12.0354 117.764 12.0426 117.944 12.057C118.129 12.0666 118.282 12.0835 118.404 12.1075V14.5101C118.292 14.4716 118.114 14.438 117.871 14.4091C117.632 14.3754 117.401 14.3586 117.177 14.3586C116.696 14.3586 116.263 14.462 115.878 14.6688C115.498 14.8709 115.199 15.1522 114.98 15.513C114.761 15.8737 114.652 16.2898 114.652 16.7612V23.2763H112.009Z" fill="white"/>
<path d="M122.802 16.7828V23.2763H120.159V12.1941H122.685V14.0772H122.817C123.075 13.4567 123.486 12.9637 124.05 12.5981C124.62 12.2326 125.323 12.0498 126.16 12.0498C126.934 12.0498 127.608 12.2133 128.182 12.5404C128.761 12.8675 129.209 13.3413 129.525 13.9618C129.847 14.5823 130.005 15.335 130 16.2201V23.2763H127.357V16.6241C127.357 15.8834 127.163 15.3038 126.773 14.8853C126.389 14.4668 125.856 14.2576 125.175 14.2576C124.712 14.2576 124.301 14.3586 123.941 14.5606C123.586 14.7578 123.306 15.044 123.101 15.4192C122.902 15.7944 122.802 16.2489 122.802 16.7828Z" fill="white"/>
</svg>
